<svg width="23" height="25" viewBox="0 0 23 25" fill="none" xmlns="http://www.w3.org/2000/svg">
<g clip-path="url(#clip0_642_327)">
<path d="M22.4823 6.81819C22.0386 6.28788 21.4469 5.9091 20.7074 5.83334L5.84242 4.62122L5.5466 3.03031C5.32473 1.59091 4.21541 0.530308 2.81026 0.303035L2.51444 0.227278L0.961388 5.11762e-06C0.517658 -0.0757525 0.0739282 0.227278 -2.6796e-05 0.681823C-0.0739818 1.13637 0.221838 1.59091 0.665568 1.66667L2.51444 1.9697C3.25399 2.04546 3.77168 2.65152 3.91959 3.33334L6.43406 18.1061C6.65592 19.4697 7.8392 20.5303 9.24435 20.5303H19.672C20.1157 20.5303 20.4855 20.1515 20.4855 19.697C20.4855 19.2424 20.1157 18.8636 19.672 18.8636H9.3183C8.72666 18.8636 8.20898 18.4091 8.13502 17.8788L7.76525 15.8333H19.3762C20.5595 15.8333 21.5209 15 21.8167 13.8636L22.926 9.01516C23.0739 8.18182 22.926 7.42425 22.4823 6.81819Z" fill="white"/>
<path d="M9.90993 21.3636C8.94851 21.3636 8.13501 22.197 8.13501 23.1818C8.13501 24.1667 8.94851 25 9.90993 25C10.8713 25 11.6848 24.1667 11.6848 23.1818C11.6848 22.197 10.8713 21.3636 9.90993 21.3636Z" fill="white"/>
<path d="M17.7492 21.3636C16.7877 21.3636 15.9742 22.197 15.9742 23.1818C15.9742 24.1667 16.7877 25 17.7492 25C18.7106 25 19.5241 24.1667 19.5241 23.1818C19.5241 22.197 18.7106 21.3636 17.7492 21.3636Z" fill="white"/>
</g>
<defs>
<clipPath id="clip0_642_327">
<rect width="23" height="25" fill="white"/>
</clipPath>
</defs>
</svg>
