<svg width="26" height="22" viewBox="0 0 26 22" fill="none" xmlns="http://www.w3.org/2000/svg">
<g clip-path="url(#clip0_642_332)">
<path d="M2.99117 12.3704L12.2714 20.8148C12.5782 21.1111 12.7316 21.2592 12.9617 21.2592C13.0384 21.2592 13.1151 21.2592 13.1918 21.2592C13.3452 21.2592 13.5752 21.1111 13.882 20.8148L23.1623 12.3704C25.7699 9.99999 26.0767 6.14814 23.9292 3.4074L23.5457 2.88888C20.9381 -0.37038 15.646 0.148138 13.8053 3.92592C13.5752 4.44443 12.7316 4.44443 12.5015 3.92592C10.6608 0.222212 5.36875 -0.37038 2.76108 2.88888L2.22421 3.4074C1.80602e-05 6.14814 0.383499 9.99999 2.99117 12.3704Z" fill="white"/>
</g>
<defs>
<clipPath id="clip0_642_332">
<rect width="26" height="22" fill="white"/>
</clipPath>
</defs>
</svg>
