<svg width="27" height="25" viewBox="0 0 27 25" fill="none" xmlns="http://www.w3.org/2000/svg">
<path d="M25.9234 11.1431L21.9134 7.1331V2.50623C21.9134 1.68367 21.2451 1.01534 20.4225 1.01534C19.6 1.01534 18.9316 1.68367 18.9316 2.50623V4.09993L15.9499 1.11816C14.459 -0.372721 11.8885 -0.372721 10.449 1.11816L0.42413 11.1431C-0.141377 11.76 -0.141377 12.6854 0.42413 13.3023C1.04105 13.9192 1.96642 13.9192 2.58334 13.3023L12.5568 3.27737C12.8653 2.96891 13.4822 2.96891 13.7907 3.27737L23.8156 13.3023C24.124 13.6107 24.4839 13.765 24.8952 13.765C25.3064 13.765 25.6663 13.6107 25.9748 13.3023C26.5403 12.6854 26.5403 11.76 25.9234 11.1431Z" fill="white"/>
<path d="M13.6879 6.15633C13.3794 5.84787 12.9167 5.84787 12.6597 6.15633L3.81721 14.9474C3.66298 15.1016 3.61157 15.2559 3.61157 15.4615V21.8877C3.61157 23.3786 4.84541 24.6124 6.33629 24.6124H10.7061V17.8778H15.6415V24.6124H20.0113C21.5022 24.6124 22.736 23.3786 22.736 21.8877V15.5129C22.736 15.3073 22.6332 15.1016 22.5304 14.9988L13.6879 6.15633Z" fill="white"/>
</svg>
