<svg width="24" height="24" viewBox="0 0 24 24" fill="none" xmlns="http://www.w3.org/2000/svg">
<g clip-path="url(#clip0_642_323)">
<path d="M23.6746 21.9661L18.9559 17.2475C19.9322 15.9458 20.5831 14.4 20.9085 12.7729C21.3153 10.6576 21.0712 8.54237 20.339 6.58983C19.5254 4.63729 18.2237 2.92881 16.4339 1.78983C14.6441 0.650847 12.6102 0 10.5763 0C8.46102 0 6.42712 0.650847 4.71865 1.78983C2.92882 3.01017 1.62712 4.63729 0.813562 6.58983C2.89455e-06 8.54237 -0.162709 10.6576 0.244071 12.7729C0.65085 14.8881 1.62712 16.7593 3.09153 18.2237C4.0678 19.2814 5.20678 20.0949 6.50848 20.583C7.81017 21.1525 9.19322 21.3966 10.5763 21.3966C11.9593 21.3966 13.3424 21.1525 14.6441 20.583C15.6203 20.1763 16.5153 19.6068 17.3288 18.9559L22.0475 23.6746C22.5356 24.1627 23.2678 24.1627 23.6746 23.6746C24.0814 23.1864 24.0814 22.4542 23.6746 21.9661ZM10.5763 19.6881C8.21695 19.6881 6.02034 18.7119 4.39322 17.0847C3.17288 15.7831 2.35932 14.2373 1.95255 12.5288C1.62712 10.739 1.78983 8.94915 2.44068 7.32203C3.09153 5.69491 4.23051 4.31186 5.69492 3.33559C7.15932 2.35932 8.8678 1.78983 10.5763 1.78983C12.2847 1.78983 13.9932 2.27797 15.4576 3.33559C16.922 4.31186 18.061 5.69491 18.7119 7.32203C19.3627 8.94915 19.5254 10.739 19.2 12.5288C18.8746 14.2373 18.061 15.8644 16.7593 17.0847C15.1322 18.7119 12.8542 19.6881 10.5763 19.6881Z" fill="white"/>
<path d="M11.0644 3.98643C10.4136 4.06779 9.92544 4.63728 10.0068 5.28813C10.0882 5.93897 10.6576 6.42711 11.3085 6.34575C12.4475 6.2644 13.5051 6.83389 13.9932 7.89152C14.2373 8.46101 14.9695 8.78643 15.539 8.54236C16.1085 8.2983 16.4339 7.56609 16.1898 6.9966C15.2136 4.9627 13.1797 3.74236 11.0644 3.98643Z" fill="white"/>
</g>
<defs>
<clipPath id="clip0_642_323">
<rect width="24" height="24" fill="white"/>
</clipPath>
</defs>
</svg>
