<svg width="31" height="33" viewBox="0 0 31 33" fill="none" xmlns="http://www.w3.org/2000/svg">
<g clip-path="url(#clip0_642_319)" filter="url(#filter0_d_642_319)">
<path d="M5.40066 2.08955C5.10579 2.53731 5.03207 3.0597 4.81092 4.1791L4.07374 7.91045C3.63143 10.2985 5.40066 12.4627 7.75964 12.4627C9.6763 12.4627 11.2981 10.9701 11.5193 9.02985L11.593 8.13433C11.3718 10.4478 13.2148 12.4627 15.5 12.4627C17.7853 12.4627 19.6282 10.4478 19.4071 8.13433L19.4808 9.02985C19.7019 10.9701 21.3237 12.4627 23.2404 12.4627C25.5994 12.4627 27.4423 10.2239 26.9263 7.91045L26.1891 4.1791C25.968 3.0597 25.8943 2.53731 25.5994 2.08955C25.1571 1.1194 24.2725 0.447761 23.2404 0.149254C22.8718 0 22.2821 0 21.1763 0H18.5962H9.82374C8.71797 0 8.20195 0 7.68592 0.149254C6.65387 0.447761 5.84297 1.1194 5.40066 2.08955Z" fill="white"/>
<path d="M23.2404 14.403C24.2724 14.403 25.157 14.1045 25.9679 13.6567V15C25.9679 19.7015 25.9679 22.0895 24.4936 23.5075C23.3141 24.7015 21.6186 24.9254 18.5224 24.9254V20.597C18.5224 19.403 18.5224 18.8806 18.3013 18.4328C18.1538 18.1343 17.9327 17.9104 17.6378 17.7612C17.1955 17.5373 16.6058 17.5373 15.5 17.5373C14.3942 17.5373 13.8045 17.5373 13.3622 17.7612C13.0673 17.9104 12.8461 18.1343 12.6987 18.4328C12.4776 18.8806 12.4776 19.4776 12.4776 20.597V24.9254C9.3814 24.8507 7.68589 24.6269 6.5064 23.5075C5.03204 22.0149 5.03204 19.7015 5.03204 15V13.6567C5.84294 14.1045 6.80127 14.403 7.75961 14.403C9.23397 14.403 10.5609 13.806 11.5929 12.8358C12.625 13.806 13.9519 14.403 15.5 14.403C16.9744 14.403 18.375 13.806 19.407 12.8358C20.4391 13.806 21.766 14.403 23.2404 14.403Z" fill="white"/>
</g>
<defs>
<filter id="filter0_d_642_319" x="0" y="0" width="31" height="33" filterUnits="userSpaceOnUse" color-interpolation-filters="sRGB">
<feFlood flood-opacity="0" result="BackgroundImageFix"/>
<feColorMatrix in="SourceAlpha" type="matrix" values="0 0 0 0 0 0 0 0 0 0 0 0 0 0 0 0 0 0 127 0" result="hardAlpha"/>
<feOffset dy="4"/>
<feGaussianBlur stdDeviation="2"/>
<feComposite in2="hardAlpha" operator="out"/>
<feColorMatrix type="matrix" values="0 0 0 0 0 0 0 0 0 0 0 0 0 0 0 0 0 0 0.25 0"/>
<feBlend mode="normal" in2="BackgroundImageFix" result="effect1_dropShadow_642_319"/>
<feBlend mode="normal" in="SourceGraphic" in2="effect1_dropShadow_642_319" result="shape"/>
</filter>
<clipPath id="clip0_642_319">
<rect width="23" height="25" fill="white" transform="translate(4)"/>
</clipPath>
</defs>
</svg>
